<svg xmlns="http://www.w3.org/2000/svg" viewBox="0 0 64 64">
  <!-- 佛乐标志「莲音」：宣纸圆角底 + 朱砂莲花与法音涟漪 -->
  <rect x="1" y="1" width="62" height="62" rx="14" fill="#f3ecda"/>
  <g fill="none" stroke="#bd3a26" stroke-width="3.2" stroke-linejoin="round" stroke-linecap="round">
    <path d="M32 11 C38 19 38 28 32 35.5 C26 28 26 19 32 11 Z"/>
    <path d="M19 18.5 C26.5 21.5 31 28 31 35.5 C23.5 33.5 19 27 19 18.5 Z"/>
    <path d="M45 18.5 C37.5 21.5 33 28 33 35.5 C40.5 33.5 45 27 45 18.5 Z"/>
    <path d="M15 42.5 C23 49.5 41 49.5 49 42.5"/>
    <path d="M21.5 50.5 C27.5 55.5 36.5 55.5 42.5 50.5"/>
  </g>
</svg>
